<?xml version="1.0" standalone="no"?>
<!DOCTYPE svg PUBLIC "-//W3C//DTD SVG 1.1//EN" "http://www.w3.org/Graphics/SVG/1.1/DTD/svg11.dtd" >
<svg>
<metadata>
Created by FontForge 20090622 at Wed Mar  5 05:07:37 2014
 By ffonts
1.2, Copyright &#194;&#169; Castcraft Software, Inc. 1990-1993.
</metadata>
<defs>
<font id="HackerFiveTwoOpti-UltraBld" horiz-adv-x="853" >
  <font-face 
    font-family="HackerFiveTwoOpti"
    font-weight="500"
    font-stretch="normal"
    units-per-em="1000"
    panose-1="0 0 0 0 0 0 0 0 0 0"
    ascent="800"
    descent="-200"
    x-height="633"
    cap-height="799"
    bbox="-64 -257 1673 1150"
    underline-thickness="60"
    underline-position="-49"
    stemh="254"
    stemv="281"
    unicode-range="U+0020-U+FB02"
  />
<missing-glyph horiz-adv-x="500" 
 />
    <glyph glyph-name=".notdef" horiz-adv-x="500" 
 />
    <glyph glyph-name="space" unicode=" " horiz-adv-x="326" 
 />
    <glyph glyph-name="exclam" unicode="!" horiz-adv-x="428" 
d="M170 233c-89 147 -133 269 -133 370c0 128 74 209 177 209s177 -81 177 -208c0 -100 -46 -224 -135 -371c52 -14 80 -48 80 -103c0 -72 -54 -128 -125 -128c-74 0 -125 53 -125 125c0 55 36 100 84 106z" />
    <glyph glyph-name="quotedbl" unicode="&#x22;" horiz-adv-x="458" 
d="M201 799v-298h-137v298h137zM394 799v-298h-138v298h138z" />
    <glyph glyph-name="numbersign" unicode="#" horiz-adv-x="967" 
d="M564 780l-69 -195h121l68 195h153l-68 -195h135l-53 -143h-133l-40 -113h136l-53 -143h-135l-69 -195h-153l69 195h-120l-70 -195h-153l70 195h-137l53 143h135l39 113h-137l52 143h137l68 195h154zM568 442h-127l-41 -113h127z" />
    <glyph glyph-name="dollar" unicode="$" horiz-adv-x="890" 
d="M405 298l-97 -119c22 -16 43 -25 63 -25c49 0 84 35 84 75c0 27 -16 45 -50 69zM441 516l85 104c-22 20 -44 29 -66 29c-40 0 -73 -32 -73 -69c0 -27 16 -46 54 -64zM298 341c-157 50 -234 128 -234 236c0 136 114 235 305 235c90 0 179 -19 267 -56l47 56h143l-285 -348
c155 -54 229 -123 229 -234c0 -143 -114 -243 -307 -243c-95 0 -177 17 -266 55l-46 -55h-142z" />
    <glyph glyph-name="percent" unicode="%" horiz-adv-x="1178" 
d="M873 770l-472 -829l-111 60l470 829zM37 575c0 65 24 123 69 168s102 69 167 69c64 0 123 -24 168 -69s68 -103 68 -168c0 -64 -23 -122 -68 -167s-104 -69 -168 -69c-65 0 -122 24 -167 69c-45 44 -69 103 -69 167zM216 575c0 -31 25 -56 57 -56c31 0 57 25 57 56
c0 32 -25 57 -57 57s-57 -25 -57 -57zM669 225c0 64 23 122 68 167s103 68 167 68c65 0 124 -23 169 -68s68 -103 68 -167s-24 -123 -68 -167c-45 -45 -104 -70 -169 -70c-64 0 -121 25 -167 70c-44 44 -68 103 -68 167zM848 225c0 -32 25 -57 56 -57c32 0 57 25 57 57
c0 31 -24 56 -57 56c-31 0 -56 -25 -56 -56z" />
    <glyph glyph-name="ampersand" unicode="&#x26;" horiz-adv-x="1065" 
d="M380 271c-34 -21 -51 -45 -51 -68c0 -31 20 -51 52 -51c28 0 53 12 78 37zM508 507c39 21 59 46 59 76c0 29 -22 48 -57 48c-30 0 -53 -22 -53 -48c0 -23 17 -48 51 -76zM643 0l-77 80c-92 -62 -181 -93 -275 -93c-141 0 -227 78 -227 196c0 98 62 167 189 227
c-50 64 -75 124 -75 178c0 117 109 224 270 224c147 0 240 -79 240 -184c0 -66 -38 -135 -110 -193l71 -72c24 28 45 59 63 94h202c-48 -72 -101 -140 -159 -203l246 -254h-358z" />
    <glyph glyph-name="quoteright" unicode="&#x2019;" horiz-adv-x="428" 
d="M175 464c-86 21 -138 88 -138 169c0 99 78 179 177 179s177 -76 177 -184c0 -83 -44 -170 -122 -235c-56 -47 -112 -73 -171 -78v16c47 35 71 74 77 133z" />
    <glyph glyph-name="parenleft" unicode="(" horiz-adv-x="656" 
d="M375 -189c-211 143 -311 294 -311 493c0 198 100 350 311 495h217c-150 -170 -229 -319 -229 -495c0 -175 78 -324 229 -493h-217z" />
    <glyph glyph-name="parenright" unicode=")" horiz-adv-x="656" 
d="M281 799c211 -143 311 -294 311 -493c0 -197 -100 -348 -311 -494h-217c151 172 229 319 229 494s-78 324 -229 493h217z" />
    <glyph glyph-name="asterisk" unicode="*" horiz-adv-x="638" 
d="M360 483l46 -171h-176l47 171l-126 -127l-88 152l173 48l-173 47l88 152l126 -129l-47 173h176l-47 -171l127 127l88 -152l-172 -48l172 -47l-88 -152z" />
    <glyph glyph-name="plus" unicode="+" horiz-adv-x="763" 
d="M456 647v-251h243v-144h-243v-252h-149v252h-243v144h243v251h149z" />
    <glyph glyph-name="comma" unicode="," horiz-adv-x="428" 
d="M175 -10c-86 22 -138 88 -138 170c0 98 78 179 177 179s177 -75 177 -184c0 -82 -44 -170 -122 -235c-55 -47 -112 -73 -171 -79v17c47 35 71 74 77 132z" />
    <glyph glyph-name="hyphen" unicode="-" horiz-adv-x="556" 
d="M64 195v252h428v-252h-428z" />
    <glyph glyph-name="period" unicode="." horiz-adv-x="413" 
d="M37 157c0 96 74 170 169 170c96 0 170 -74 170 -170c0 -95 -74 -170 -170 -170c-95 0 -169 75 -169 170z" />
    <glyph glyph-name="slash" unicode="/" horiz-adv-x="546" 
d="M483 770l-300 -881l-119 46l295 879z" />
    <glyph glyph-name="zero" unicode="0" horiz-adv-x="899" 
d="M370 400c0 -46 35 -82 80 -82c43 0 79 37 79 82c0 44 -35 80 -79 80c-45 0 -80 -35 -80 -80zM37 400c0 116 41 215 119 293c79 78 178 119 294 119c115 0 216 -41 294 -119s118 -178 118 -293c0 -116 -40 -215 -118 -294c-78 -78 -179 -119 -294 -119
c-116 0 -215 41 -294 119c-78 79 -119 177 -119 294z" />
    <glyph glyph-name="one" unicode="1" horiz-adv-x="899" 
d="M621 0h-354v713l354 104v-817z" />
    <glyph glyph-name="two" unicode="2" horiz-adv-x="899" 
d="M754 0h-640c165 218 264 347 264 422c0 44 -34 77 -82 77c-47 0 -95 -47 -167 -133v348c84 66 176 98 278 98c191 0 326 -128 326 -313c0 -108 -42 -216 -122 -339h143v-160z" />
    <glyph glyph-name="three" unicode="3" horiz-adv-x="899" 
d="M154 0v283c47 -53 96 -79 158 -79c59 0 95 31 95 78c0 51 -47 88 -125 88c-36 0 -78 -10 -128 -27v141c43 -8 82 -13 115 -13c83 0 133 38 133 86c0 43 -38 77 -96 77c-54 0 -109 -28 -152 -81v246h291c208 0 309 -56 309 -205c0 -79 -42 -139 -125 -179
c85 -41 135 -96 135 -191c0 -81 -37 -146 -100 -183c-65 -39 -137 -41 -221 -41h-37h-252z" />
    <glyph glyph-name="four" unicode="4" horiz-adv-x="899" 
d="M369 453v189l-165 -189h165zM729 0h-365v277h-316v167l316 355h365v-346h126v-176h-126v-277z" />
    <glyph glyph-name="five" unicode="5" horiz-adv-x="899" 
d="M107 322l-14 8l120 469h610v-149h-283l-28 -97c182 -16 280 -108 280 -255c0 -183 -135 -311 -361 -311c-168 0 -297 73 -360 199l18 18c62 -36 122 -53 185 -53c98 0 158 44 158 106c0 63 -58 105 -165 105c-57 0 -108 -13 -160 -40z" />
    <glyph glyph-name="six" unicode="6" horiz-adv-x="899" 
d="M367 370c0 -45 35 -81 79 -81s80 37 80 81c0 45 -35 82 -80 82c-44 0 -79 -36 -79 -82zM580 623c178 -18 285 -132 285 -285c0 -82 -31 -159 -90 -220c-79 -83 -196 -131 -330 -131c-109 0 -197 28 -275 93c-89 74 -132 163 -132 278c0 165 105 315 315 441h487v-16
c-88 -28 -173 -82 -260 -160z" />
    <glyph glyph-name="seven" unicode="7" horiz-adv-x="899" 
d="M467 0h-388l281 661h-232v138h687z" />
    <glyph glyph-name="eight" unicode="8" horiz-adv-x="899" 
d="M667 401c117 -32 178 -98 178 -194c0 -69 -36 -133 -98 -169c-78 -45 -177 -51 -306 -51c-110 0 -191 6 -247 27c-98 36 -151 104 -151 193c0 96 60 163 177 194c-114 34 -166 90 -166 187c0 60 31 117 86 157c72 51 169 67 304 67c258 0 390 -80 390 -227
c0 -94 -54 -151 -167 -184zM510 573c0 37 -29 68 -66 68s-66 -32 -66 -68s29 -66 66 -66s66 29 66 66zM512 218c0 38 -29 70 -68 70c-38 0 -69 -33 -69 -70c0 -38 31 -68 69 -68c39 0 68 30 68 68z" />
    <glyph glyph-name="nine" unicode="9" horiz-adv-x="899" 
d="M528 429c0 45 -35 81 -80 81c-43 0 -79 -37 -79 -81c0 -45 35 -82 79 -82c45 0 80 36 80 82zM315 176c-178 18 -286 132 -286 285c0 82 32 159 90 220c80 83 197 131 331 131c109 0 197 -29 274 -93c89 -75 133 -163 133 -278c0 -165 -106 -316 -315 -441h-487v16
c88 29 173 82 260 160z" />
    <glyph glyph-name="colon" unicode=":" horiz-adv-x="410" 
d="M37 129c0 87 63 142 168 142c106 0 169 -55 169 -142s-63 -142 -169 -142c-105 0 -168 55 -168 142zM37 521c0 87 63 142 168 142c106 0 169 -55 169 -142s-63 -142 -169 -142c-105 0 -168 55 -168 142z" />
    <glyph glyph-name="semicolon" unicode=";" horiz-adv-x="423" 
d="M178 -13c-85 2 -141 61 -141 139c0 89 67 152 175 152s175 -61 175 -155c0 -123 -120 -260 -286 -286v18c48 34 72 73 77 132zM43 521c0 87 62 142 168 142c105 0 168 -55 168 -142s-63 -142 -168 -142c-106 0 -168 55 -168 142z" />
    <glyph glyph-name="less" unicode="&#x3c;" horiz-adv-x="752" 
d="M688 497l-424 -173l424 -174v-159l-624 259v148l624 259v-160z" />
    <glyph glyph-name="equal" unicode="=" horiz-adv-x="763" 
d="M699 521v-144h-635v144h635zM699 271v-144h-635v144h635z" />
    <glyph glyph-name="greater" unicode="&#x3e;" horiz-adv-x="752" 
d="M688 398v-148l-624 -259v159l425 174l-425 173v160z" />
    <glyph glyph-name="question" unicode="?" horiz-adv-x="625" 
d="M376 217c57 -14 87 -49 87 -100c0 -71 -55 -130 -132 -130c-73 0 -123 47 -123 109c0 43 22 76 49 116c34 50 73 92 73 159c0 81 -59 136 -145 136c-45 0 -93 -15 -148 -47c62 219 166 326 319 326c136 0 232 -93 232 -228c0 -117 -71 -227 -212 -341z" />
    <glyph glyph-name="at" unicode="@" horiz-adv-x="1086" 
d="M597 277l25 103c-5 49 -31 76 -70 76c-68 0 -127 -96 -127 -207c0 -52 23 -81 61 -81c50 0 94 40 111 109zM658 498l26 44h128l-82 -332c-1 -6 -3 -11 -3 -17c0 -16 9 -26 25 -26c85 0 177 110 177 251c0 164 -130 279 -337 279c-102 0 -190 -26 -261 -75
c-108 -76 -170 -194 -170 -328c0 -207 151 -341 389 -341c114 0 219 34 311 99l61 -85c-115 -85 -239 -127 -383 -127c-135 0 -256 41 -345 112c-104 84 -157 197 -157 339c0 125 40 237 116 327c105 125 260 194 437 194c275 0 459 -163 459 -392
c0 -121 -50 -226 -140 -295c-51 -40 -112 -60 -174 -60c-77 0 -117 26 -124 82c-41 -56 -87 -81 -153 -81c-120 0 -182 62 -182 186c0 176 116 305 265 305c53 0 93 -21 117 -59z" />
    <glyph glyph-name="A" unicode="A" horiz-adv-x="1051" 
d="M-7 0l288 799h481l296 -799h-364l-45 138h-253l-43 -138h-360zM463 325h122l-61 189z" />
    <glyph glyph-name="B" unicode="B" horiz-adv-x="931" 
d="M64 0v799h515c191 0 294 -88 294 -216c0 -74 -34 -132 -101 -176c80 -43 122 -106 122 -178c0 -79 -32 -139 -95 -180c-72 -47 -155 -49 -260 -49h-28h-447zM404 638v-149h11c65 0 100 28 100 77c0 45 -35 72 -100 72h-11zM404 352v-165h11c73 0 111 30 111 84
c0 50 -40 81 -111 81h-11z" />
    <glyph glyph-name="C" unicode="C" horiz-adv-x="865" 
d="M828 77c-105 -60 -225 -90 -354 -90c-100 0 -185 21 -254 68c-115 78 -183 206 -183 345c0 109 42 213 120 291c80 82 184 121 312 121c121 0 245 -31 359 -94l-144 -278c-50 18 -97 28 -143 28c-73 0 -112 -24 -112 -60c0 -38 39 -61 112 -61c45 0 92 11 143 30z" />
    <glyph glyph-name="D" unicode="D" horiz-adv-x="904" 
d="M368 799c108 0 198 -1 276 -40c140 -70 224 -204 224 -359c0 -130 -59 -248 -163 -325c-77 -58 -159 -75 -265 -75h-376v799h304zM415 499v-169h11c75 0 114 32 114 87c0 52 -41 82 -114 82h-11z" />
    <glyph glyph-name="E" unicode="E" horiz-adv-x="768" 
d="M64 0v799h661v-199h-304v-95h213v-199h-213v-98h304v-208h-661z" />
    <glyph glyph-name="F" unicode="F" horiz-adv-x="738" 
d="M64 0v799h654v-195h-297v-144h221v-204h-221v-256h-357z" />
    <glyph glyph-name="G" unicode="G" horiz-adv-x="949" 
d="M507 434h357v-434h-246c-168 0 -297 1 -401 65c-115 72 -180 188 -180 332c0 110 43 213 120 291c87 87 193 123 337 123c134 0 261 -37 392 -111l-175 -237c-74 35 -139 54 -199 54c-81 0 -131 -45 -131 -110c0 -58 40 -98 108 -98c5 0 12 0 18 2v123z" />
    <glyph glyph-name="H" unicode="H" horiz-adv-x="1017" 
d="M64 0v799h357v-287h176v287h356v-799h-356v302h-176v-302h-357z" />
    <glyph glyph-name="I" unicode="I" horiz-adv-x="489" 
d="M64 0v799h361v-799h-361z" />
    <glyph glyph-name="J" unicode="J" horiz-adv-x="584" 
d="M-14 187h72c97 0 110 16 110 115v497h352v-518v-39c0 -70 -3 -126 -34 -171c-39 -56 -104 -84 -195 -84c-157 0 -264 71 -305 200z" />
    <glyph glyph-name="K" unicode="K" horiz-adv-x="991" 
d="M421 0h-357v799h357v-258c116 9 179 97 182 258h358c0 -11 1 -20 1 -31c0 -149 -52 -269 -151 -362c112 -84 171 -218 171 -406h-378v10c0 181 -62 278 -183 285v-295z" />
    <glyph glyph-name="L" unicode="L" horiz-adv-x="729" 
d="M730 0h-666v799h357v-588h309v-211z" />
    <glyph glyph-name="M" unicode="M" horiz-adv-x="1093" 
d="M421 0h-357v799h345l139 -158l137 158h344v-799h-344v393l-135 -142l-129 141v-392z" />
    <glyph glyph-name="N" unicode="N" horiz-adv-x="923" 
d="M421 0h-357v799h258l189 -258v258h348v-799h-276l-162 235v-235z" />
    <glyph glyph-name="O" unicode="O" horiz-adv-x="914" 
d="M37 400c0 109 44 213 124 292c79 78 184 120 296 120c113 0 218 -41 298 -120c80 -78 122 -184 122 -292c0 -109 -43 -213 -122 -291c-80 -79 -185 -122 -298 -122s-216 44 -296 122c-81 79 -124 181 -124 291zM377 400c0 -45 36 -81 80 -81c46 0 80 36 80 81
c0 44 -35 80 -80 80s-80 -36 -80 -80z" />
    <glyph glyph-name="P" unicode="P" horiz-adv-x="904" 
d="M421 0h-357v799h438c113 0 198 -7 270 -63c62 -48 96 -117 96 -201c0 -158 -111 -272 -271 -272c-67 0 -125 20 -176 63v-326zM421 626v-162h12c72 0 109 29 109 82c0 49 -37 80 -107 80h-14z" />
    <glyph glyph-name="Q" unicode="Q" horiz-adv-x="914" 
d="M633 26c-54 -25 -110 -37 -169 -37c-92 0 -172 22 -239 66c-120 79 -188 207 -188 345c0 109 43 213 124 292c79 78 184 120 296 120c113 0 218 -41 298 -120c80 -78 122 -184 122 -292c0 -88 -25 -164 -78 -239l122 -161h-274zM377 400c0 -45 36 -81 80 -81
c46 0 80 36 80 81c0 44 -35 80 -80 80s-80 -36 -80 -80z" />
    <glyph glyph-name="R" unicode="R" horiz-adv-x="935" 
d="M421 644v-150h11c66 0 100 27 100 76c0 46 -35 74 -100 74h-11zM421 0h-357v799h503c111 0 190 -9 252 -70c43 -41 66 -98 66 -161c0 -72 -34 -138 -93 -180c76 -96 128 -224 143 -388h-371c0 193 -48 298 -143 308v-308z" />
    <glyph glyph-name="S" unicode="S" horiz-adv-x="822" 
d="M3 52l90 267c71 -89 145 -131 202 -131c33 0 58 23 58 48c0 39 -51 49 -128 86c-127 61 -188 118 -188 233c0 155 130 257 365 257c117 0 231 -19 345 -58l-93 -251c-62 83 -139 126 -199 126c-36 0 -57 -18 -57 -42c0 -47 59 -60 156 -102c137 -58 204 -117 204 -237
c0 -167 -137 -261 -403 -261c-127 0 -242 20 -352 65z" />
    <glyph glyph-name="T" unicode="T" horiz-adv-x="707" 
d="M534 0h-359v447h-176v352h709v-352h-174v-447z" />
    <glyph glyph-name="U" unicode="U" horiz-adv-x="928" 
d="M864 455c0 -314 -129 -468 -400 -468c-272 0 -400 154 -400 468v344h357v-365c0 -59 6 -90 43 -90c39 0 43 30 43 90v365h357v-344z" />
    <glyph glyph-name="V" unicode="V" horiz-adv-x="885" 
d="M619 0h-348l-273 799h356l90 -275l85 275h357z" />
    <glyph glyph-name="W" unicode="W" horiz-adv-x="1071" 
d="M459 0h-233l-227 799h313l55 -250l69 250h200l68 -247l57 247h311l-229 -799h-235l-72 261z" />
    <glyph glyph-name="X" unicode="X" horiz-adv-x="1021" 
d="M388 0h-389l313 407l-308 392h389l111 -142l112 142h384l-299 -390l321 -409h-387l-128 156z" />
    <glyph glyph-name="Y" unicode="Y" horiz-adv-x="958" 
d="M664 0h-357v356l-308 443h363l119 -175l119 175h359l-295 -443v-356z" />
    <glyph glyph-name="Z" unicode="Z" horiz-adv-x="866" 
d="M843 0h-845l371 599h-339v200h839l-371 -588h345v-211z" />
    <glyph glyph-name="bracketleft" unicode="[" horiz-adv-x="594" 
d="M64 -163v962h466v-174h-149v-614h149v-174h-466z" />
    <glyph glyph-name="backslash" unicode="\" horiz-adv-x="547" 
d="M364 -125l-301 881l125 44l295 -879z" />
    <glyph glyph-name="bracketright" unicode="]" horiz-adv-x="594" 
d="M529 799v-962h-465v174h148v614h-148v174h465z" />
    <glyph glyph-name="asciicircum" unicode="^" horiz-adv-x="493" 
d="M64 698l122 173h121l122 -173h-107l-76 72l-76 -72h-106z" />
    <glyph glyph-name="underscore" unicode="_" horiz-adv-x="684" 
d="M-64 -23h706v-149h-706v149z" />
    <glyph glyph-name="quoteleft" unicode="&#x2018;" horiz-adv-x="428" 
d="M253 650c86 -21 138 -88 138 -169c0 -99 -78 -179 -177 -179s-177 76 -177 184c0 83 44 169 122 235c56 46 111 73 171 78v-16c-48 -35 -72 -74 -77 -133z" />
    <glyph glyph-name="a" unicode="a" horiz-adv-x="751" 
d="M360 148v82c-18 6 -33 9 -47 9c-37 0 -61 -23 -61 -56c0 -31 24 -54 57 -54c24 0 41 10 51 19zM687 0h-327v49c-51 -39 -100 -58 -156 -58c-100 0 -167 71 -167 174c0 109 85 184 206 184c36 0 75 -5 117 -12c-2 57 -46 89 -130 89c-55 0 -116 -19 -179 -55v198
c92 51 200 77 323 77c103 0 187 -30 236 -75c68 -62 77 -130 77 -231v-340z" />
    <glyph glyph-name="b" unicode="b" horiz-adv-x="855" 
d="M64 0v799h325v-167c46 14 90 14 130 14c74 0 153 -35 201 -79c68 -64 98 -140 98 -245c0 -111 -38 -192 -119 -253c-79 -59 -172 -69 -293 -69h-342zM389 237h13c75 0 110 26 110 82c0 40 -30 69 -74 69c-15 0 -31 -5 -49 -12v-139z" />
    <glyph glyph-name="c" unicode="c" horiz-adv-x="686" 
d="M649 341c-66 23 -122 34 -169 34c-64 0 -102 -26 -102 -59c0 -34 38 -59 102 -59c47 0 103 12 169 35v-280c-76 -16 -140 -25 -192 -25c-112 0 -196 15 -264 58c-97 61 -156 162 -156 272c0 86 36 167 102 230c68 65 159 99 267 99c70 0 150 -16 243 -47v-258z" />
    <glyph glyph-name="d" unicode="d" horiz-adv-x="866" 
d="M802 0h-286h-52c-92 0 -183 4 -276 51c-94 48 -151 148 -151 277c0 188 125 318 316 318c38 0 78 2 120 -14v167h329v-799zM473 238v137c-18 8 -35 13 -51 13c-45 0 -78 -31 -78 -71c0 -52 35 -80 101 -80c9 0 19 0 28 1z" />
    <glyph glyph-name="e" unicode="e" horiz-adv-x="743" 
d="M364 387h143v8c0 56 -31 91 -74 91c-44 0 -68 -33 -69 -99zM705 240v-105c-74 -99 -170 -148 -297 -148c-93 0 -167 21 -228 64c-93 67 -143 167 -143 281c0 183 129 314 323 314c212 0 346 -131 346 -339c0 -9 0 -19 -1 -29h-322c17 -68 70 -108 145 -108
c55 0 112 24 177 70z" />
    <glyph glyph-name="f" unicode="f" horiz-adv-x="595" 
d="M418 0h-325v301h-69v135h69v20c0 216 136 353 329 353c44 0 94 -8 152 -22v-296c-28 28 -56 42 -85 42c-47 0 -72 -32 -72 -92v-5h157v-135h-156v-301z" />
    <glyph glyph-name="g" unicode="g" horiz-adv-x="814" 
d="M423 322v133h-7c-66 0 -103 -30 -103 -78c0 -39 29 -69 69 -69c14 0 27 6 41 14zM38 193c78 -78 164 -116 266 -116c87 0 124 23 124 83c0 8 -1 18 -2 28c-44 -26 -87 -39 -137 -39c-149 0 -252 97 -252 245c0 65 22 122 62 164c68 73 161 75 295 75h356v-469
c0 -76 -2 -123 -7 -139c-14 -43 -30 -80 -67 -116c-58 -58 -155 -85 -293 -85c-137 0 -247 25 -345 89v280z" />
    <glyph glyph-name="h" unicode="h" 
d="M379 799v-227c50 50 110 74 183 74c148 0 227 -78 227 -224v-422h-298v371c0 57 -19 84 -65 84c-18 0 -32 -7 -47 -22v-433h-315v799h315z" />
    <glyph glyph-name="i" unicode="i" horiz-adv-x="458" 
d="M207 726c0 53 42 94 94 94s93 -41 93 -94c0 -52 -41 -93 -93 -93s-94 41 -94 93zM394 0h-330v633c54 -27 109 -39 168 -39c56 0 109 13 162 39v-633z" />
    <glyph glyph-name="j" unicode="j" horiz-adv-x="495" 
d="M425 159c0 -107 -17 -184 -75 -243c-59 -62 -136 -95 -218 -95c-44 0 -96 12 -157 35v244c23 -6 39 -9 52 -9c52 0 72 30 72 92v450c52 -27 105 -39 165 -39c55 0 108 13 161 39v-474zM241 726c0 53 40 94 92 94s94 -41 94 -94c0 -52 -42 -93 -94 -93s-92 41 -92 93z" />
    <glyph glyph-name="k" unicode="k" horiz-adv-x="857" 
d="M383 0h-319v799h319v-370c80 37 113 99 116 204h322c1 -11 2 -22 2 -33c0 -95 -43 -169 -124 -229c87 -75 126 -168 126 -294c0 -25 -1 -50 -4 -77h-317v14c0 172 -38 270 -121 298v-312z" />
    <glyph glyph-name="l" unicode="l" horiz-adv-x="459" 
d="M395 0h-331v799h331v-799z" />
    <glyph glyph-name="m" unicode="m" horiz-adv-x="1130" 
d="M438 376c0 45 -3 70 -44 70c-17 0 -34 -6 -50 -19v-427h-280v633h280v-71c56 54 110 84 172 84c71 0 121 -26 154 -80c59 52 116 80 181 80c146 0 215 -74 215 -212v-434h-280v376c0 45 -2 70 -43 70c-18 0 -34 -6 -50 -19v-427h-255v376z" />
    <glyph glyph-name="n" unicode="n" 
d="M64 0v633h315v-64c50 50 110 77 183 77c148 0 227 -78 227 -224v-422h-298v371c0 57 -19 84 -65 84c-18 0 -32 -7 -47 -22v-433h-315z" />
    <glyph glyph-name="o" unicode="o" horiz-adv-x="772" 
d="M315 324c0 -40 31 -72 70 -72c40 0 72 31 72 72c0 39 -32 71 -72 71c-39 0 -70 -33 -70 -71zM37 317c0 88 36 169 102 232c66 64 151 97 246 97c96 0 181 -34 248 -97c66 -63 102 -145 102 -232s-36 -170 -102 -233c-66 -62 -154 -97 -248 -97s-181 35 -246 97
c-66 63 -102 146 -102 233z" />
    <glyph glyph-name="p" unicode="p" horiz-adv-x="864" 
d="M394 245c16 -12 33 -16 51 -16c44 0 73 33 73 82c0 47 -30 79 -72 79c-24 0 -41 -10 -52 -26v-119zM394 594c45 35 92 52 148 52c168 0 285 -125 285 -322c0 -105 -37 -187 -115 -258c-54 -49 -119 -79 -200 -79c-41 0 -79 9 -118 26v-189h-330v809h330v-39z" />
    <glyph glyph-name="q" unicode="q" horiz-adv-x="866" 
d="M476 257v140c-9 1 -18 1 -26 1c-66 0 -103 -30 -103 -79c0 -45 29 -74 72 -74c21 0 39 4 57 12zM476 -176v185c-38 -17 -76 -22 -117 -22c-180 0 -322 138 -322 328c0 102 51 202 130 255c78 52 173 63 301 63h334v-809h-326z" />
    <glyph glyph-name="r" unicode="r" horiz-adv-x="720" 
d="M64 0v633h328v-122c51 89 104 135 181 135c90 0 153 -64 153 -151c0 -91 -64 -159 -154 -159c-45 0 -89 19 -134 56c-44 -28 -46 -80 -46 -154v-21v-217h-328z" />
    <glyph glyph-name="s" unicode="s" horiz-adv-x="693" 
d="M16 63l71 178c61 -65 120 -98 176 -98c37 0 56 16 56 42c0 44 -46 54 -117 79c-111 39 -165 98 -165 189c0 120 105 193 307 193c109 0 204 -17 292 -53l-81 -165c-58 48 -104 73 -150 73c-34 0 -52 -17 -52 -43c0 -13 6 -25 21 -38c20 -18 67 -23 125 -43
c106 -37 157 -91 157 -175c0 -125 -112 -215 -310 -215c-117 0 -227 25 -330 76z" />
    <glyph glyph-name="t" unicode="t" horiz-adv-x="608" 
d="M434 319c0 -50 11 -75 55 -75c29 0 54 14 77 42v-249c-57 -34 -123 -50 -201 -50c-72 0 -135 26 -193 80c-57 52 -72 121 -72 219v167h-114l448 356v-176h132v-180h-132v-134z" />
    <glyph glyph-name="u" unicode="u" 
d="M789 633v-633h-313v61c-50 -50 -110 -74 -184 -74c-148 0 -228 76 -228 221v425h300v-375c0 -56 17 -83 64 -83c17 0 32 6 48 22v436h313z" />
    <glyph glyph-name="v" unicode="v" horiz-adv-x="779" 
d="M499 0h-231l-270 633h331l53 -116l53 116h346z" />
    <glyph glyph-name="w" unicode="w" horiz-adv-x="1064" 
d="M458 0h-184l-276 633h335l62 -127l57 127h155l57 -127l62 127h339l-280 -633h-180l-74 165z" />
    <glyph glyph-name="x" unicode="x" horiz-adv-x="912" 
d="M15 0l241 302l-257 331h379l63 -75l61 75h395l-241 -303l257 -330h-370l-72 88l-67 -88h-389z" />
    <glyph glyph-name="y" unicode="y" horiz-adv-x="777" 
d="M432 -176h-353l132 317l-213 492h345l48 -117l55 117h334z" />
    <glyph glyph-name="z" unicode="z" horiz-adv-x="705" 
d="M684 0h-674l222 432h-196v201h648l-213 -415h213v-218z" />
    <glyph glyph-name="braceleft" unicode="{" horiz-adv-x="531" 
d="M467 648c-9 0 -16 1 -23 1c-66 0 -78 -19 -78 -83v-127c0 -88 -22 -125 -115 -141c93 -18 115 -54 115 -141v-128c0 -63 12 -82 77 -82c8 0 15 1 24 1v-151h-42c-79 0 -136 3 -176 24c-52 26 -58 70 -58 143v137c0 88 -28 123 -108 123c-6 0 -12 -1 -19 -1v149
c7 0 13 -1 19 -1c80 0 108 35 108 123v137c0 73 6 118 58 144c41 21 98 24 176 24h42v-151z" />
    <glyph glyph-name="bar" unicode="|" horiz-adv-x="233" 
d="M213 799v-971h-149v971h149z" />
    <glyph glyph-name="braceright" unicode="}" horiz-adv-x="531" 
d="M340 631v-137c0 -88 28 -123 108 -123c6 0 12 1 19 1v-149c-7 0 -13 1 -19 1c-80 0 -108 -35 -108 -123v-137c0 -73 -7 -118 -59 -144c-39 -20 -94 -23 -167 -23h-50v150h23c66 0 78 18 78 82v128c0 87 22 123 115 141c-93 16 -115 53 -115 140v128c0 64 -12 83 -78 83
c-7 0 -14 -1 -23 -1v151h42c79 0 135 -3 175 -24c52 -26 59 -71 59 -144z" />
    <glyph glyph-name="asciitilde" unicode="~" horiz-adv-x="482" 
d="M64 686c11 96 40 139 105 139c12 0 23 -2 35 -5l65 -17c8 -2 17 -3 25 -3c25 0 40 12 48 40h76c-5 -92 -50 -142 -110 -142c-9 0 -19 1 -30 4l-70 19c-7 2 -15 4 -26 4c-19 0 -34 -13 -43 -39h-75z" />
    <glyph glyph-name="exclamdown" unicode="&#xa1;" horiz-adv-x="428" 
d="M256 415c89 -147 135 -268 135 -369c0 -129 -74 -210 -177 -210s-177 83 -177 210c0 99 44 222 133 369c-52 14 -79 49 -79 103c0 73 53 128 125 128c74 0 125 -53 125 -125c0 -55 -36 -100 -85 -106z" />
    <glyph glyph-name="cent" unicode="&#xa2;" horiz-adv-x="724" 
d="M490 648l49 133h148l-59 -165l22 -7v-256c-68 23 -123 34 -169 34c-64 0 -103 -25 -103 -59s39 -60 103 -60c46 0 101 12 169 35v-279c-65 -15 -132 -24 -203 -24c-14 0 -28 0 -43 1l-50 -136h-149l57 156c-149 65 -225 171 -225 306c0 87 37 170 102 233
c67 64 151 96 254 96c28 0 60 -2 97 -8z" />
    <glyph glyph-name="sterling" unicode="&#xa3;" horiz-adv-x="865" 
d="M768 0h-704c14 116 33 231 55 344h-74v115h92c44 245 143 353 349 353c168 0 279 -70 315 -217c-51 35 -99 52 -146 52c-97 0 -145 -59 -173 -188h120v-115h-137l-26 -142h329v-202z" />
    <glyph glyph-name="fraction" unicode="&#x2044;" horiz-adv-x="958" 
d="M664 0h-357v356l-308 443h363l119 -175l119 175h359l-295 -443v-356zM276 952c0 47 40 86 88 86c49 0 87 -38 87 -86c0 -51 -37 -88 -87 -88c-49 0 -88 38 -88 88zM478 952c0 47 40 86 88 86c49 0 87 -38 87 -86c0 -51 -37 -88 -87 -88c-49 0 -88 38 -88 88z" />
    <glyph glyph-name="yen" unicode="&#xa5;" horiz-adv-x="937" 
d="M784 579h90v-107h-160l-51 -77h211v-105h-238v-290h-333v290h-241v105h215l-54 77h-161v107h89l-152 220h326l141 -206l140 206h322z" />
    <glyph glyph-name="florin" unicode="&#x192;" horiz-adv-x="935" 
d="M64 -173v283c28 -20 57 -29 87 -29c101 0 120 70 141 233h-140v141h162c26 252 139 370 358 370c57 0 122 -10 199 -27v-262c-44 12 -78 19 -107 19c-59 0 -94 -32 -109 -100h171v-141h-195c-21 -184 -46 -307 -87 -373c-65 -102 -161 -151 -296 -151
c-58 0 -119 12 -184 37z" />
    <glyph glyph-name="section" unicode="&#xa7;" horiz-adv-x="712" 
d="M116 115c77 -50 152 -73 210 -73c27 0 41 9 41 25c0 21 -23 27 -67 45l-106 43c-105 43 -157 106 -157 195c0 75 35 127 104 156c-27 29 -40 66 -40 111c0 116 96 195 253 195c87 0 162 -16 224 -47v-170c-76 41 -142 61 -191 61c-28 0 -41 -9 -41 -25
c0 -21 22 -28 67 -46l106 -42c105 -42 156 -107 156 -196c0 -74 -34 -127 -104 -156c27 -29 40 -66 40 -111c0 -116 -95 -194 -253 -194c-90 0 -171 17 -242 50v179zM474 251c17 14 24 29 24 45c0 40 -42 54 -115 85l-84 36c-13 5 -30 13 -48 23c-16 -14 -24 -31 -24 -47
c0 -39 40 -55 114 -85l85 -34c13 -5 30 -13 48 -23z" />
    <glyph glyph-name="currency" unicode="&#xa4;" horiz-adv-x="549" 
d="M485 319h-421c109 132 174 209 174 253c0 26 -22 47 -53 47c-32 0 -63 -28 -111 -80v209c55 39 116 59 183 59c126 0 215 -77 215 -188c0 -65 -28 -129 -80 -204h93v-96z" />
    <glyph glyph-name="quotesingle" unicode="'" horiz-adv-x="265" 
d="M201 799v-298h-137v298h137z" />
    <glyph glyph-name="quotedblleft" unicode="&#x201c;" 
d="M253 650c86 -21 138 -88 138 -169c0 -99 -78 -179 -177 -179s-177 76 -177 184c0 83 44 169 122 235c56 46 111 73 171 78v-16c-48 -35 -72 -74 -77 -133zM679 650c85 -21 138 -88 138 -169c0 -99 -79 -179 -177 -179c-99 0 -176 76 -176 184c0 83 43 170 121 235
c56 47 111 73 171 78v-16c-50 -36 -72 -76 -77 -133z" />
    <glyph glyph-name="guillemotleft" unicode="&#xab;" horiz-adv-x="836" 
d="M447 520l-141 -206l140 -211h-241l-141 211l141 206h242zM772 520l-141 -206l140 -211h-241l-141 211l141 206h242z" />
    <glyph glyph-name="guilsinglleft" unicode="&#x2039;" horiz-adv-x="510" 
d="M447 520l-141 -206l140 -211h-241l-141 211l141 206h242z" />
    <glyph glyph-name="guilsinglright" unicode="&#x203a;" horiz-adv-x="510" 
d="M63 520h242l141 -206l-141 -211h-241l140 211z" />
    <glyph glyph-name="fi" unicode="&#xfb01;" horiz-adv-x="992" 
d="M418 0h-325v301h-69v135h69v21c0 215 135 352 329 352c42 0 89 -8 143 -21v-287c-25 21 -50 32 -76 32c-47 0 -72 -32 -72 -92v-5h148v-135h-147v-301zM742 726c0 53 41 94 93 94s93 -41 93 -94c0 -52 -41 -93 -93 -93s-93 41 -93 93zM928 0h-324v633
c51 -28 103 -39 163 -39c55 0 108 13 161 39v-633z" />
    <glyph glyph-name="fl" unicode="&#xfb02;" horiz-adv-x="992" 
d="M418 0h-325v301h-69v135h69v21c0 215 135 352 329 352c42 0 89 -8 143 -21v-287c-25 21 -50 32 -76 32c-47 0 -72 -32 -72 -92v-5h148v-135h-147v-301zM928 0h-324v799h324v-799z" />
    <glyph glyph-name="endash" unicode="&#x2013;" horiz-adv-x="671" 
d="M64 203v237h543v-237h-543z" />
    <glyph glyph-name="dagger" unicode="&#x2020;" horiz-adv-x="738" 
d="M282 404l-218 -46v262l218 -43l-42 222h261l-46 -222l219 43v-262l-219 46l46 -502h-261z" />
    <glyph glyph-name="daggerdbl" unicode="&#x2021;" horiz-adv-x="723" 
d="M448 258l211 44v-244l-211 42l44 -198h-262l46 198l-212 -42v244l212 -44l-23 93l22 92l-211 -43v244l211 -44l-43 199h261l-46 -199l212 44v-244l-212 43l23 -92z" />
    <glyph glyph-name="periodcentered" unicode="&#xb7;" horiz-adv-x="364" 
d="M201 0v-45h3c79 0 123 -38 123 -102c0 -69 -48 -110 -135 -110c-42 0 -95 8 -155 25v76c46 -18 88 -26 127 -26c34 0 50 9 50 33c0 27 -19 36 -62 36c-8 0 -16 -1 -25 -1v114h74z" />
    <glyph glyph-name="paragraph" unicode="&#xb6;" horiz-adv-x="633" 
d="M569 709h-53v-709h-108v709h-74v-709h-107v416c-117 5 -190 80 -190 183c0 109 79 185 206 185h326v-75z" />
    <glyph glyph-name="bullet" unicode="&#x2022;" horiz-adv-x="388" 
d="M37 404c0 87 70 156 157 156c86 0 157 -69 157 -156c0 -86 -71 -158 -158 -158s-156 71 -156 158z" />
    <glyph glyph-name="quotesinglbase" unicode="&#x201a;" horiz-adv-x="428" 
d="M175 -10c-86 22 -138 88 -138 170c0 98 78 179 177 179s177 -75 177 -184c0 -82 -44 -170 -122 -235c-55 -47 -112 -73 -171 -79v17c47 35 71 74 77 132z" />
    <glyph glyph-name="quotedblbase" unicode="&#x201e;" 
d="M602 -10c-86 22 -138 88 -138 170c0 98 78 179 177 179c98 0 176 -75 176 -184c0 -82 -43 -170 -121 -235c-55 -47 -112 -73 -172 -79v17c48 35 72 74 78 132zM175 -10c-86 22 -138 88 -138 170c0 98 78 179 177 179s177 -75 177 -184c0 -82 -44 -170 -122 -235
c-55 -47 -112 -73 -171 -79v17c47 35 71 74 77 132z" />
    <glyph glyph-name="quotedblright" unicode="&#x201d;" 
d="M602 451c-86 21 -138 88 -138 169c0 99 78 179 177 179c98 0 176 -76 176 -184c0 -83 -43 -171 -121 -236c-55 -47 -112 -73 -172 -78v16c48 35 72 75 78 134zM175 451c-86 21 -138 88 -138 169c0 99 78 179 177 179s177 -76 177 -184c0 -83 -44 -171 -122 -236
c-55 -47 -112 -73 -171 -78v16c47 35 71 75 77 134z" />
    <glyph glyph-name="guillemotright" unicode="&#xbb;" horiz-adv-x="836" 
d="M389 520h242l141 -206l-140 -211h-242l140 211zM64 520h242l141 -206l-141 -211h-241l140 211z" />
    <glyph glyph-name="ellipsis" unicode="&#x2026;" horiz-adv-x="1137" 
d="M37 157c0 96 74 170 169 170c96 0 170 -74 170 -170c0 -95 -74 -170 -170 -170c-95 0 -169 75 -169 170zM398 157c0 96 74 170 170 170c95 0 169 -74 169 -170c0 -95 -74 -170 -169 -170c-96 0 -170 75 -170 170zM761 157c0 96 74 170 170 170c95 0 169 -74 169 -170
c0 -95 -74 -170 -169 -170c-96 0 -170 75 -170 170z" />
    <glyph glyph-name="perthousand" unicode="&#x2030;" horiz-adv-x="1710" 
d="M873 769l-472 -829l-111 60l470 828zM37 574c0 64 24 123 69 168s102 69 167 69c64 0 123 -24 168 -69s68 -104 68 -168s-23 -122 -68 -167s-104 -69 -168 -69c-65 0 -122 24 -167 69c-45 44 -69 103 -69 167zM216 574c0 -31 25 -56 57 -56c31 0 57 25 57 56
c0 32 -25 57 -57 57s-57 -25 -57 -57zM669 224c0 64 23 122 68 167s103 68 167 68c65 0 124 -23 169 -68s68 -103 68 -167s-23 -123 -68 -168s-104 -69 -169 -69c-64 0 -122 24 -167 69c-45 44 -68 104 -68 168zM848 224c0 -32 25 -57 56 -57c32 0 57 25 57 57
c0 31 -24 56 -57 56c-31 0 -56 -25 -56 -56zM1380 224c0 -32 25 -57 56 -57c32 0 58 25 58 57c0 31 -25 56 -58 56c-31 0 -56 -25 -56 -56zM1201 224c0 64 24 122 69 167s104 68 168 68s122 -23 167 -68s68 -103 68 -167s-23 -123 -68 -168s-103 -69 -167 -69
s-123 24 -168 69c-45 44 -69 104 -69 168z" />
    <glyph glyph-name="questiondown" unicode="&#xbf;" horiz-adv-x="624" 
d="M250 417c-58 14 -87 48 -87 99c0 71 54 130 131 130c73 0 123 -46 123 -107c0 -44 -22 -76 -49 -117c-34 -50 -73 -92 -73 -159c0 -81 59 -137 146 -137c44 0 92 16 147 48c-61 -219 -166 -326 -319 -326c-135 0 -232 93 -232 228c0 117 72 227 213 341z" />
    <glyph glyph-name="grave" unicode="`" horiz-adv-x="435" 
d="M268 698l-204 173h186l121 -173h-103z" />
    <glyph glyph-name="acute" unicode="&#xb4;" horiz-adv-x="435" 
d="M64 698l122 173h185l-204 -173h-103z" />
    <glyph glyph-name="circumflex" unicode="&#x2c6;" horiz-adv-x="493" 
d="M64 864l122 173h121l122 -173h-107l-76 72l-76 -72h-106z" />
    <glyph glyph-name="tilde" unicode="&#x2dc;" horiz-adv-x="482" 
d="M64 852c11 96 40 139 105 139c12 0 23 -2 35 -5l65 -16c8 -3 17 -4 25 -4c25 0 40 12 48 41h76c-5 -93 -50 -143 -110 -143c-9 0 -19 1 -30 5l-70 18c-7 2 -15 4 -26 4c-19 0 -34 -13 -43 -39h-75z" />
    <glyph glyph-name="macron" unicode="&#xaf;" horiz-adv-x="426" 
d="M64 698v91h298v-91h-298z" />
    <glyph glyph-name="breve" unicode="&#x2d8;" horiz-adv-x="481" 
d="M142 870c8 -49 39 -70 99 -70c61 0 90 21 98 70h78c-12 -119 -65 -172 -176 -172s-168 56 -177 172h78z" />
    <glyph glyph-name="dotaccent" unicode="&#x2d9;" horiz-adv-x="264" 
d="M37 793c0 50 44 95 94 95c54 0 96 -42 96 -95c0 -56 -40 -95 -96 -95c-52 0 -94 41 -94 95z" />
    <glyph glyph-name="dieresis" unicode="&#xa8;" horiz-adv-x="451" 
d="M37 786c0 47 40 86 88 86c49 0 87 -38 87 -86c0 -51 -37 -88 -87 -88c-49 0 -88 38 -88 88zM239 786c0 47 40 86 88 86c49 0 87 -38 87 -86c0 -51 -37 -88 -87 -88c-49 0 -88 38 -88 88z" />
    <glyph glyph-name="ring" unicode="&#x2da;" horiz-adv-x="362" 
d="M126 841c0 -31 24 -55 54 -55c32 0 57 25 57 55c0 31 -25 57 -57 57c-30 0 -54 -26 -54 -57zM37 841c0 81 63 144 143 144c81 0 145 -63 145 -144c0 -80 -64 -143 -145 -143c-80 0 -143 62 -143 143z" />
    <glyph glyph-name="emdash" unicode="&#x2014;" horiz-adv-x="1214" 
d="M64 203v237h1086v-237h-1086z" />
    <glyph glyph-name="AE" unicode="&#xc6;" horiz-adv-x="1312" 
d="M630 574l-123 -261h123v261zM1287 799v-199h-304v-95h212v-199h-212v-98h304v-208h-657v143h-205l-69 -143h-361l382 799h910z" />
    <glyph glyph-name="ordfeminine" unicode="&#xaa;" horiz-adv-x="588" 
d="M279 464v57c-14 5 -25 7 -36 7c-27 0 -45 -17 -45 -39s18 -38 43 -38c17 0 30 7 38 13zM524 360h-245v34c-38 -27 -76 -40 -117 -40c-75 0 -125 50 -125 122c0 76 63 129 154 129c27 0 57 -3 88 -9c-1 40 -35 62 -98 62c-41 0 -87 -13 -134 -38v139c69 36 150 53 242 53
c77 0 141 -20 178 -52c50 -43 57 -91 57 -162v-238z" />
    <glyph glyph-name="Oslash" unicode="&#xd8;" horiz-adv-x="914" 
d="M377 400c0 -45 36 -81 80 -81c46 0 80 36 80 81c0 44 -35 80 -80 80s-80 -36 -80 -80zM656 763l73 89l119 -104s-67 -84 -67 -85c63 -73 96 -167 96 -263c0 -109 -43 -213 -122 -291c-80 -79 -185 -122 -298 -122c-75 0 -144 18 -207 54l-71 -99l-119 105l72 92
c-61 74 -95 165 -95 261c0 109 44 213 124 292c79 78 184 120 296 120c71 0 139 -16 199 -49z" />
    <glyph glyph-name="OE" unicode="&#x152;" horiz-adv-x="1249" 
d="M366 400c0 -46 35 -82 79 -82s79 37 79 82c0 44 -34 81 -79 81c-44 0 -79 -36 -79 -81zM604 0h-29c-144 0 -258 2 -354 65c-117 77 -184 200 -184 335c0 134 67 258 182 333c97 63 200 66 318 66h45h603v-197h-310v-98h231v-196h-231v-106h310v-202h-581z" />
    <glyph glyph-name="ordmasculine" unicode="&#xba;" horiz-adv-x="603" 
d="M248 584c0 -28 23 -51 53 -51c29 0 54 23 54 51s-25 51 -54 51c-30 0 -53 -24 -53 -51zM37 579c0 63 26 120 77 165c50 45 115 68 187 68c73 0 137 -23 188 -68c50 -44 77 -103 77 -165c0 -61 -27 -120 -77 -164s-117 -69 -188 -69c-72 0 -136 25 -187 69
c-50 44 -77 103 -77 164z" />
    <glyph glyph-name="ae" unicode="&#xe6;" horiz-adv-x="1063" 
d="M362 152v84c-16 5 -30 7 -40 7c-47 0 -71 -19 -71 -55c0 -31 24 -54 54 -54c24 0 45 6 57 18zM1025 242v-107c-75 -98 -167 -148 -276 -148c-105 0 -185 40 -258 129c-88 -87 -170 -129 -264 -129c-116 0 -190 72 -190 179c0 114 87 189 220 189c31 0 65 -5 105 -14
c-3 59 -48 90 -132 90c-54 0 -116 -18 -179 -54v196c90 50 185 73 282 73c81 0 146 -22 203 -69c61 46 119 69 187 69c179 0 303 -131 303 -338c0 -8 -1 -18 -1 -28h-320c20 -68 75 -107 146 -107c53 0 108 24 174 69zM684 389h143c-1 67 -27 101 -73 101
c-44 0 -69 -35 -70 -101z" />
    <glyph glyph-name="dotlessi" unicode="&#x131;" horiz-adv-x="458" 
d="M394 0h-330v633c54 -27 109 -39 168 -39c56 0 109 13 162 39v-633z" />
    <glyph glyph-name="oslash" unicode="&#xf8;" horiz-adv-x="772" 
d="M315 324c0 -40 31 -72 70 -72c40 0 72 31 72 72c0 39 -32 71 -72 71c-39 0 -70 -33 -70 -71zM591 583l71 76l75 -74l-74 -68c47 -58 72 -127 72 -200c0 -87 -36 -170 -102 -233c-66 -62 -154 -97 -248 -97c-68 0 -133 18 -188 52l-70 -75l-73 76l70 59
c-57 62 -87 138 -87 218c0 88 36 169 102 232c66 64 151 97 246 97c78 0 147 -22 206 -63z" />
    <glyph glyph-name="oe" unicode="&#x153;" horiz-adv-x="1151" 
d="M772 385h143v10c0 58 -29 93 -72 93c-40 0 -72 -36 -72 -90c0 -4 1 -8 1 -13zM1113 135c-73 -99 -169 -148 -300 -148c-92 0 -158 29 -215 97c-66 -61 -150 -97 -241 -97c-70 0 -138 27 -195 73c-77 61 -125 160 -125 260c0 85 35 166 101 230c63 61 149 96 237 96
c83 0 155 -30 220 -92c61 63 127 92 212 92c182 0 307 -128 307 -334c0 -11 0 -21 -1 -32h-320c21 -68 75 -106 147 -106c52 0 106 24 173 66v-105zM313 324c0 -38 30 -71 69 -71s71 31 71 71c0 39 -32 71 -71 71s-69 -32 -69 -71z" />
    <glyph glyph-name="germandbls" unicode="&#xdf;" horiz-adv-x="871" 
d="M64 -176v536v41c0 106 3 196 66 280c64 84 178 131 331 131c223 0 348 -94 348 -240c0 -74 -33 -127 -101 -167c85 -36 126 -99 126 -189c0 -144 -101 -227 -291 -227c-34 0 -65 4 -97 12v215c48 1 71 24 71 70c0 43 -23 65 -71 67v113h2c37 0 58 25 58 66
c0 38 -22 60 -58 60c-56 0 -60 -45 -60 -139v-629h-324z" />
    <glyph glyph-name="logicalnot" unicode="&#xac;" horiz-adv-x="763" 
d="M699 460v-266h-144v125h-491v141h635z" />
    <glyph glyph-name="mu" unicode="&#xb5;" horiz-adv-x="847" 
d="M398 577l-44 -326c-1 -10 -2 -20 -2 -28c0 -48 22 -71 67 -71c57 0 87 37 98 113l44 312h222l-84 -577h-195l10 69c-26 -48 -59 -71 -100 -71c-44 0 -75 23 -94 66l-38 -288h-218l111 801h223z" />
    <glyph glyph-name="trademark" unicode="&#x2122;" horiz-adv-x="835" 
d="M343 799v-80h-86v-216h-107v216h-86v80h279zM531 799l52 -141l52 141h136v-296h-97v194l-72 -194h-37l-73 194v-194h-97v296h136z" />
    <glyph glyph-name="plusminus" unicode="&#xb1;" horiz-adv-x="763" 
d="M456 669v-164h243v-145h-243v-163h-149v163h-243v145h243v164h149zM699 123v-145h-635v145h635z" />
    <glyph glyph-name="divide" unicode="&#xf7;" horiz-adv-x="707" 
d="M643 741l-473 -828l-106 59l470 828z" />
    <glyph glyph-name="degree" unicode="&#xb0;" horiz-adv-x="416" 
d="M208 799c95 0 171 -76 171 -171c0 -93 -76 -171 -172 -171c-94 0 -170 75 -170 171c0 95 78 171 171 171zM289 629c0 43 -37 80 -82 80c-43 0 -79 -36 -79 -80c0 -45 35 -82 80 -82s81 38 81 82z" />
    <glyph glyph-name="registered" unicode="&#xae;" horiz-adv-x="472" 
d="M236 799c54 0 104 -20 142 -58c37 -37 57 -87 57 -142c0 -54 -20 -102 -57 -139c-40 -38 -90 -60 -142 -60c-53 0 -101 21 -140 59c-38 38 -59 88 -59 140c0 54 21 103 60 143c35 37 84 57 139 57zM395 600c0 43 -17 83 -46 112c-31 31 -69 47 -112 47
c-44 0 -83 -16 -112 -46c-31 -31 -47 -71 -47 -113s16 -80 47 -111s69 -47 112 -47c41 0 81 16 113 47c29 29 45 67 45 111zM239 712c62 0 94 -23 94 -64c0 -27 -15 -48 -43 -57l47 -95h-74l-38 83h-7v-83h-68v216h89zM228 670h-10v-51h14c21 0 32 9 32 26s-12 25 -36 25z
" />
    <glyph glyph-name="copyright" unicode="&#xa9;" horiz-adv-x="472" 
d="M236 799c54 0 104 -20 142 -58c37 -37 57 -87 57 -142c0 -54 -20 -102 -57 -139c-40 -38 -90 -60 -142 -60c-53 0 -101 21 -140 59c-38 38 -59 88 -59 140c0 54 21 103 60 143c35 37 84 57 139 57zM395 600c0 43 -17 83 -46 112c-31 31 -69 47 -112 47
c-44 0 -83 -16 -112 -46c-31 -31 -47 -71 -47 -113s16 -80 47 -111s69 -47 112 -47c41 0 81 16 113 47c29 29 45 67 45 111zM271 637c-1 22 -14 36 -34 36c-25 0 -42 -25 -42 -73c0 -46 16 -69 44 -69c22 0 32 13 34 38h66c-2 -52 -41 -86 -101 -86c-70 0 -111 44 -111 115
c0 73 45 119 105 119c64 0 101 -31 104 -80h-65z" />
    <glyph glyph-name="Aacute" unicode="&#xc1;" horiz-adv-x="1051" 
d="M-7 0l288 799h481l296 -799h-364l-45 138h-253l-43 -138h-360zM463 325h122l-61 189zM478 863l121 173h186l-204 -173h-103z" />
    <glyph glyph-name="Acircumflex" unicode="&#xc2;" horiz-adv-x="1051" 
d="M-7 0l288 799h481l296 -799h-364l-45 138h-253l-43 -138h-360zM463 325h122l-61 189zM338 864l121 173h122l121 -173h-106l-76 72l-76 -72h-106z" />
    <glyph glyph-name="Adieresis" unicode="&#xc4;" horiz-adv-x="1051" 
d="M-7 0l288 799h481l296 -799h-364l-45 138h-253l-43 -138h-360zM463 325h122l-61 189zM328 951c0 47 40 86 88 86c49 0 87 -38 87 -86c0 -51 -37 -88 -87 -88c-49 0 -88 38 -88 88zM530 951c0 47 40 86 88 86c49 0 87 -38 87 -86c0 -51 -37 -88 -87 -88
c-49 0 -88 38 -88 88z" />
    <glyph glyph-name="Agrave" unicode="&#xc0;" horiz-adv-x="1051" 
d="M-7 0l288 799h481l296 -799h-364l-45 138h-253l-43 -138h-360zM463 325h122l-61 189zM469 863l-204 173h186l121 -173h-103z" />
    <glyph glyph-name="Aring" unicode="&#xc5;" horiz-adv-x="1051" 
d="M-7 0l288 799h481l296 -799h-364l-45 138h-253l-43 -138h-360zM463 325h122l-61 189zM443 1007c0 -32 24 -56 54 -56c32 0 57 25 57 56c0 30 -25 56 -57 56c-30 0 -54 -26 -54 -56zM354 1007c0 80 63 143 143 143c81 0 145 -63 145 -143c0 -81 -64 -144 -145 -144
c-80 0 -143 62 -143 144z" />
    <glyph glyph-name="Atilde" unicode="&#xc3;" horiz-adv-x="1051" 
d="M-7 0l288 799h481l296 -799h-364l-45 138h-253l-43 -138h-360zM463 325h122l-61 189zM368 851c11 96 40 139 105 139c12 0 23 -2 35 -5l65 -16c8 -3 17 -4 25 -4c25 0 40 12 48 40h76c-5 -92 -50 -142 -110 -142c-9 0 -19 1 -30 5l-70 18c-7 2 -15 4 -26 4
c-19 0 -34 -13 -43 -39h-75z" />
    <glyph glyph-name="Ccedilla" unicode="&#xc7;" horiz-adv-x="865" 
d="M431 -12c-82 5 -152 27 -211 67c-115 79 -183 206 -183 345c0 109 42 213 120 291c80 82 184 121 312 121c121 0 245 -31 359 -94l-144 -278c-50 18 -97 28 -143 28c-73 0 -112 -24 -112 -60c0 -38 39 -61 112 -61c45 0 92 11 143 30l144 -300c-96 -55 -206 -85 -323 -89
v-27h3c79 0 123 -38 123 -102c0 -70 -48 -111 -135 -111c-42 0 -95 9 -155 25v76c46 -17 88 -26 127 -26c34 0 50 10 50 34c0 27 -19 36 -62 36c-8 0 -16 -2 -25 -2v97z" />
    <glyph glyph-name="Eacute" unicode="&#xc9;" horiz-adv-x="768" 
d="M64 0v799h661v-199h-304v-95h213v-199h-213v-98h304v-208h-661zM337 863l121 173h186l-204 -173h-103z" />
    <glyph glyph-name="Ecircumflex" unicode="&#xca;" horiz-adv-x="768" 
d="M64 0v799h661v-199h-304v-95h213v-199h-213v-98h304v-208h-661zM218 864l122 173h121l122 -173h-106l-76 72l-76 -72h-107z" />
    <glyph glyph-name="Edieresis" unicode="&#xcb;" horiz-adv-x="768" 
d="M64 0v799h661v-199h-304v-95h213v-199h-213v-98h304v-208h-661zM200 952c0 47 40 86 88 86c49 0 87 -38 87 -86c0 -51 -37 -88 -87 -88c-49 0 -88 38 -88 88zM402 952c0 47 40 86 88 86c49 0 87 -38 87 -86c0 -51 -37 -88 -87 -88c-49 0 -88 38 -88 88z" />
    <glyph glyph-name="Egrave" unicode="&#xc8;" horiz-adv-x="768" 
d="M64 0v799h661v-199h-304v-95h213v-199h-213v-98h304v-208h-661zM388 863l-205 173h186l122 -173h-103z" />
    <glyph glyph-name="Iacute" unicode="&#xcd;" horiz-adv-x="489" 
d="M64 0v799h361v-799h-361zM206 863l122 173h186l-205 -173h-103z" />
    <glyph glyph-name="Icircumflex" unicode="&#xce;" horiz-adv-x="489" 
d="M64 0v799h361v-799h-361zM61 864l121 173h122l122 -173h-107l-76 72l-76 -72h-106z" />
    <glyph glyph-name="Idieresis" unicode="&#xcf;" horiz-adv-x="489" 
d="M64 0v799h361v-799h-361zM59 952c0 47 40 86 88 86s86 -38 86 -86c0 -51 -36 -88 -86 -88c-49 0 -88 38 -88 88zM261 952c0 47 40 86 88 86s86 -38 86 -86c0 -51 -37 -88 -86 -88s-88 38 -88 88z" />
    <glyph glyph-name="Igrave" unicode="&#xcc;" horiz-adv-x="489" 
d="M64 0v799h361v-799h-361zM214 863l-204 173h185l122 -173h-103z" />
    <glyph glyph-name="Ntilde" unicode="&#xd1;" horiz-adv-x="923" 
d="M421 0h-357v799h258l189 -258v258h348v-799h-276l-162 235v-235zM266 851c11 96 40 139 105 139c12 0 23 -2 35 -5l65 -16c8 -3 17 -4 25 -4c25 0 40 12 48 40h76c-5 -92 -50 -142 -110 -142c-9 0 -19 1 -30 5l-70 18c-7 2 -15 4 -26 4c-19 0 -34 -13 -43 -39h-75z" />
    <glyph glyph-name="Oacute" unicode="&#xd3;" horiz-adv-x="914" 
d="M37 400c0 109 44 213 124 292c79 78 184 120 296 120c113 0 218 -41 298 -120c80 -78 122 -184 122 -292c0 -109 -43 -213 -122 -291c-80 -79 -185 -122 -298 -122s-216 44 -296 122c-81 79 -124 181 -124 291zM377 400c0 -45 36 -81 80 -81c46 0 80 36 80 81
c0 44 -35 80 -80 80s-80 -36 -80 -80zM423 864l122 173h186l-204 -173h-104z" />
    <glyph glyph-name="Ocircumflex" unicode="&#xd4;" horiz-adv-x="914" 
d="M37 400c0 109 44 213 124 292c79 78 184 120 296 120c113 0 218 -41 298 -120c80 -78 122 -184 122 -292c0 -109 -43 -213 -122 -291c-80 -79 -185 -122 -298 -122s-216 44 -296 122c-81 79 -124 181 -124 291zM377 400c0 -45 36 -81 80 -81c46 0 80 36 80 81
c0 44 -35 80 -80 80s-80 -36 -80 -80zM275 864l121 173h122l122 -173h-107l-76 72l-76 -72h-106z" />
    <glyph glyph-name="Odieresis" unicode="&#xd6;" horiz-adv-x="914" 
d="M37 400c0 109 44 213 124 292c79 78 184 120 296 120c113 0 218 -41 298 -120c80 -78 122 -184 122 -292c0 -109 -43 -213 -122 -291c-80 -79 -185 -122 -298 -122s-216 44 -296 122c-81 79 -124 181 -124 291zM377 400c0 -45 36 -81 80 -81c46 0 80 36 80 81
c0 44 -35 80 -80 80s-80 -36 -80 -80zM263 952c0 47 40 86 88 86c49 0 87 -38 87 -86c0 -51 -37 -88 -87 -88c-49 0 -88 38 -88 88zM465 952c0 47 40 86 88 86c49 0 87 -38 87 -86c0 -51 -37 -88 -87 -88c-49 0 -88 38 -88 88z" />
    <glyph glyph-name="Ograve" unicode="&#xd2;" horiz-adv-x="914" 
d="M37 400c0 109 44 213 124 292c79 78 184 120 296 120c113 0 218 -41 298 -120c80 -78 122 -184 122 -292c0 -109 -43 -213 -122 -291c-80 -79 -185 -122 -298 -122s-216 44 -296 122c-81 79 -124 181 -124 291zM377 400c0 -45 36 -81 80 -81c46 0 80 36 80 81
c0 44 -35 80 -80 80s-80 -36 -80 -80zM409 863l-204 173h186l121 -173h-103z" />
    <glyph glyph-name="Otilde" unicode="&#xd5;" horiz-adv-x="914" 
d="M37 400c0 109 44 213 124 292c79 78 184 120 296 120c113 0 218 -41 298 -120c80 -78 122 -184 122 -292c0 -109 -43 -213 -122 -291c-80 -79 -185 -122 -298 -122s-216 44 -296 122c-81 79 -124 181 -124 291zM377 400c0 -45 36 -81 80 -81c46 0 80 36 80 81
c0 44 -35 80 -80 80s-80 -36 -80 -80zM281 851c11 96 40 139 106 139c11 0 22 -2 34 -5l65 -16c8 -3 17 -4 25 -4c25 0 41 12 48 40h76c-5 -92 -50 -142 -109 -142c-10 0 -20 1 -31 5l-69 18c-8 2 -16 4 -26 4c-20 0 -35 -13 -44 -39h-75z" />
    <glyph glyph-name="Uacute" unicode="&#xda;" horiz-adv-x="928" 
d="M864 455c0 -314 -129 -468 -400 -468c-272 0 -400 154 -400 468v344h357v-365c0 -59 6 -90 43 -90c39 0 43 30 43 90v365h357v-344zM413 863l121 173h186l-204 -173h-103z" />
    <glyph glyph-name="Ucircumflex" unicode="&#xdb;" horiz-adv-x="928" 
d="M864 455c0 -314 -129 -468 -400 -468c-272 0 -400 154 -400 468v344h357v-365c0 -59 6 -90 43 -90c39 0 43 30 43 90v365h357v-344zM273 864l121 173h122l121 -173h-106l-76 72l-76 -72h-106z" />
    <glyph glyph-name="Udieresis" unicode="&#xdc;" horiz-adv-x="928" 
d="M864 455c0 -314 -129 -468 -400 -468c-272 0 -400 154 -400 468v344h357v-365c0 -59 6 -90 43 -90c39 0 43 30 43 90v365h357v-344zM263 950c0 47 40 86 88 86c49 0 87 -38 87 -86c0 -51 -37 -88 -87 -88c-49 0 -88 38 -88 88zM465 950c0 47 40 86 88 86
c49 0 87 -38 87 -86c0 -51 -37 -88 -87 -88c-49 0 -88 38 -88 88z" />
    <glyph glyph-name="Ugrave" unicode="&#xd9;" horiz-adv-x="928" 
d="M864 455c0 -314 -129 -468 -400 -468c-272 0 -400 154 -400 468v344h357v-365c0 -59 6 -90 43 -90c39 0 43 30 43 90v365h357v-344zM409 863l-204 173h186l121 -173h-103z" />
    <glyph glyph-name="Ydieresis" unicode="&#x178;" horiz-adv-x="958" 
d="M664 0h-357v356l-308 443h363l119 -175l119 175h359l-295 -443v-356zM434 863l122 173h186l-205 -173h-103z" />
    <glyph glyph-name="aacute" unicode="&#xe1;" horiz-adv-x="751" 
d="M360 148v82c-18 6 -33 9 -47 9c-37 0 -61 -23 -61 -56c0 -31 24 -54 57 -54c24 0 41 10 51 19zM687 0h-327v49c-51 -39 -100 -58 -156 -58c-100 0 -167 71 -167 174c0 109 85 184 206 184c36 0 75 -5 117 -12c-2 57 -46 89 -130 89c-55 0 -116 -19 -179 -55v198
c92 51 200 77 323 77c103 0 187 -30 236 -75c68 -62 77 -130 77 -231v-340zM326 698l121 173h186l-204 -173h-103z" />
    <glyph glyph-name="acircumflex" unicode="&#xe2;" horiz-adv-x="751" 
d="M360 148v82c-18 6 -33 9 -47 9c-37 0 -61 -23 -61 -56c0 -31 24 -54 57 -54c24 0 41 10 51 19zM687 0h-327v49c-51 -39 -100 -58 -156 -58c-100 0 -167 71 -167 174c0 109 85 184 206 184c36 0 75 -5 117 -12c-2 57 -46 89 -130 89c-55 0 -116 -19 -179 -55v198
c92 51 200 77 323 77c103 0 187 -30 236 -75c68 -62 77 -130 77 -231v-340zM183 698l122 173h122l121 -173h-106l-76 72l-76 -72h-107z" />
    <glyph glyph-name="adieresis" unicode="&#xe4;" horiz-adv-x="751" 
d="M360 148v82c-18 6 -33 9 -47 9c-37 0 -61 -23 -61 -56c0 -31 24 -54 57 -54c24 0 41 10 51 19zM687 0h-327v49c-51 -39 -100 -58 -156 -58c-100 0 -167 71 -167 174c0 109 85 184 206 184c36 0 75 -5 117 -12c-2 57 -46 89 -130 89c-55 0 -116 -19 -179 -55v198
c92 51 200 77 323 77c103 0 187 -30 236 -75c68 -62 77 -130 77 -231v-340zM165 786c0 47 40 86 88 86c49 0 87 -38 87 -86c0 -51 -37 -88 -87 -88c-49 0 -88 38 -88 88zM367 786c0 47 40 86 88 86c49 0 87 -38 87 -86c0 -51 -37 -88 -87 -88c-49 0 -88 38 -88 88z" />
    <glyph glyph-name="agrave" unicode="&#xe0;" horiz-adv-x="751" 
d="M360 148v82c-18 6 -33 9 -47 9c-37 0 -61 -23 -61 -56c0 -31 24 -54 57 -54c24 0 41 10 51 19zM687 0h-327v49c-51 -39 -100 -58 -156 -58c-100 0 -167 71 -167 174c0 109 85 184 206 184c36 0 75 -5 117 -12c-2 57 -46 89 -130 89c-55 0 -116 -19 -179 -55v198
c92 51 200 77 323 77c103 0 187 -30 236 -75c68 -62 77 -130 77 -231v-340zM322 698l-204 173h186l122 -173h-104z" />
    <glyph glyph-name="aring" unicode="&#xe5;" horiz-adv-x="751" 
d="M360 148v82c-18 6 -33 9 -47 9c-37 0 -61 -23 -61 -56c0 -31 24 -54 57 -54c24 0 41 10 51 19zM687 0h-327v49c-51 -39 -100 -58 -156 -58c-100 0 -167 71 -167 174c0 109 85 184 206 184c36 0 75 -5 117 -12c-2 57 -46 89 -130 89c-55 0 -116 -19 -179 -55v198
c92 51 200 77 323 77c103 0 187 -30 236 -75c68 -62 77 -130 77 -231v-340zM311 841c0 -31 23 -55 54 -55s56 25 56 55c0 31 -25 57 -56 57s-54 -26 -54 -57zM221 841c0 81 63 144 144 144c80 0 144 -63 144 -144c0 -80 -64 -143 -144 -143c-81 0 -144 62 -144 143z" />
    <glyph glyph-name="atilde" unicode="&#xe3;" horiz-adv-x="751" 
d="M360 148v82c-18 6 -33 9 -47 9c-37 0 -61 -23 -61 -56c0 -31 24 -54 57 -54c24 0 41 10 51 19zM687 0h-327v49c-51 -39 -100 -58 -156 -58c-100 0 -167 71 -167 174c0 109 85 184 206 184c36 0 75 -5 117 -12c-2 57 -46 89 -130 89c-55 0 -116 -19 -179 -55v198
c92 51 200 77 323 77c103 0 187 -30 236 -75c68 -62 77 -130 77 -231v-340zM179 686c11 96 40 139 105 139c12 0 23 -2 35 -5l65 -17c8 -2 17 -3 25 -3c25 0 41 12 48 40h76c-5 -92 -50 -142 -110 -142c-9 0 -19 1 -30 4l-69 19c-8 2 -16 4 -26 4c-20 0 -35 -13 -44 -39h-75
z" />
    <glyph glyph-name="ccedilla" unicode="&#xe7;" horiz-adv-x="686" 
d="M388 -11c-79 6 -143 23 -195 56c-97 61 -156 162 -156 272c0 86 36 167 102 230c68 65 159 99 267 99c70 0 150 -16 243 -47v-258c-66 23 -122 34 -169 34c-64 0 -102 -26 -102 -59c0 -34 38 -59 102 -59c47 0 103 12 169 35v-280c-74 -16 -137 -25 -188 -25v-10h4
c79 0 122 -38 122 -102c0 -69 -47 -111 -134 -111c-43 0 -96 9 -155 25v76c45 -17 87 -26 127 -26c33 0 49 10 49 34c0 27 -18 36 -61 36c-8 0 -17 -1 -25 -1v81z" />
    <glyph glyph-name="eacute" unicode="&#xe9;" horiz-adv-x="743" 
d="M364 387h143v8c0 56 -31 91 -74 91c-44 0 -68 -33 -69 -99zM705 240v-105c-74 -99 -170 -148 -297 -148c-93 0 -167 21 -228 64c-93 67 -143 167 -143 281c0 183 129 314 323 314c212 0 346 -131 346 -339c0 -9 0 -19 -1 -29h-322c17 -68 70 -108 145 -108
c55 0 112 24 177 70zM318 698l122 173h185l-204 -173h-103z" />
    <glyph glyph-name="ecircumflex" unicode="&#xea;" horiz-adv-x="743" 
d="M364 387h143v8c0 56 -31 91 -74 91c-44 0 -68 -33 -69 -99zM705 240v-105c-74 -99 -170 -148 -297 -148c-93 0 -167 21 -228 64c-93 67 -143 167 -143 281c0 183 129 314 323 314c212 0 346 -131 346 -339c0 -9 0 -19 -1 -29h-322c17 -68 70 -108 145 -108
c55 0 112 24 177 70zM173 698l121 173h122l121 -173h-106l-76 72l-76 -72h-106z" />
    <glyph glyph-name="edieresis" unicode="&#xeb;" horiz-adv-x="743" 
d="M364 387h143v8c0 56 -31 91 -74 91c-44 0 -68 -33 -69 -99zM705 240v-105c-74 -99 -170 -148 -297 -148c-93 0 -167 21 -228 64c-93 67 -143 167 -143 281c0 183 129 314 323 314c212 0 346 -131 346 -339c0 -9 0 -19 -1 -29h-322c17 -68 70 -108 145 -108
c55 0 112 24 177 70zM176 786c0 47 40 86 88 86c49 0 87 -38 87 -86c0 -51 -37 -88 -87 -88c-49 0 -88 38 -88 88zM378 786c0 47 40 86 88 86c49 0 87 -38 87 -86c0 -51 -37 -88 -87 -88c-49 0 -88 38 -88 88z" />
    <glyph glyph-name="egrave" unicode="&#xe8;" horiz-adv-x="743" 
d="M364 387h143v8c0 56 -31 91 -74 91c-44 0 -68 -33 -69 -99zM705 240v-105c-74 -99 -170 -148 -297 -148c-93 0 -167 21 -228 64c-93 67 -143 167 -143 281c0 183 129 314 323 314c212 0 346 -131 346 -339c0 -9 0 -19 -1 -29h-322c17 -68 70 -108 145 -108
c55 0 112 24 177 70zM312 698l-205 173h186l122 -173h-103z" />
    <glyph glyph-name="iacute" unicode="&#xed;" horiz-adv-x="458" 
d="M394 0h-330v633c54 -27 109 -39 168 -39c56 0 109 13 162 39v-633zM185 698l121 173h186l-204 -173h-103z" />
    <glyph glyph-name="icircumflex" unicode="&#xee;" horiz-adv-x="458" 
d="M394 0h-330v633c54 -27 109 -39 168 -39c56 0 109 13 162 39v-633zM51 698l122 173h121l122 -173h-107l-76 72l-76 -72h-106z" />
    <glyph glyph-name="idieresis" unicode="&#xef;" horiz-adv-x="458" 
d="M394 0h-330v633c54 -27 109 -39 168 -39c56 0 109 13 162 39v-633zM46 786c0 47 40 86 88 86s86 -38 86 -86c0 -51 -37 -88 -86 -88s-88 38 -88 88zM248 786c0 47 40 86 88 86s86 -38 86 -86c0 -51 -37 -88 -86 -88s-88 38 -88 88z" />
    <glyph glyph-name="igrave" unicode="&#xec;" horiz-adv-x="458" 
d="M394 0h-330v633c54 -27 109 -39 168 -39c56 0 109 13 162 39v-633zM192 698l-204 173h186l121 -173h-103z" />
    <glyph glyph-name="ntilde" unicode="&#xf1;" 
d="M64 0v633h315v-64c50 50 110 77 183 77c148 0 227 -78 227 -224v-422h-298v371c0 57 -19 84 -65 84c-18 0 -32 -7 -47 -22v-433h-315zM331 686c11 96 40 139 105 139c12 0 23 -2 35 -5l65 -17c8 -2 17 -3 25 -3c25 0 41 12 48 40h76c-5 -92 -50 -142 -110 -142
c-9 0 -19 1 -30 4l-69 19c-8 2 -16 4 -26 4c-20 0 -35 -13 -44 -39h-75z" />
    <glyph glyph-name="oacute" unicode="&#xf3;" horiz-adv-x="772" 
d="M315 324c0 -40 31 -72 70 -72c40 0 72 31 72 72c0 39 -32 71 -72 71c-39 0 -70 -33 -70 -71zM37 317c0 88 36 169 102 232c66 64 151 97 246 97c96 0 181 -34 248 -97c66 -63 102 -145 102 -232s-36 -170 -102 -233c-66 -62 -154 -97 -248 -97s-181 35 -246 97
c-66 63 -102 146 -102 233zM337 698l121 173h186l-204 -173h-103z" />
    <glyph glyph-name="ocircumflex" unicode="&#xf4;" horiz-adv-x="772" 
d="M315 324c0 -40 31 -72 70 -72c40 0 72 31 72 72c0 39 -32 71 -72 71c-39 0 -70 -33 -70 -71zM37 317c0 88 36 169 102 232c66 64 151 97 246 97c96 0 181 -34 248 -97c66 -63 102 -145 102 -232s-36 -170 -102 -233c-66 -62 -154 -97 -248 -97s-181 35 -246 97
c-66 63 -102 146 -102 233zM197 698l121 173h122l121 -173h-106l-76 72l-76 -72h-106z" />
    <glyph glyph-name="odieresis" unicode="&#xf6;" horiz-adv-x="772" 
d="M315 324c0 -40 31 -72 70 -72c40 0 72 31 72 72c0 39 -32 71 -72 71c-39 0 -70 -33 -70 -71zM37 317c0 88 36 169 102 232c66 64 151 97 246 97c96 0 181 -34 248 -97c66 -63 102 -145 102 -232s-36 -170 -102 -233c-66 -62 -154 -97 -248 -97s-181 35 -246 97
c-66 63 -102 146 -102 233zM189 786c0 47 40 86 88 86c49 0 87 -38 87 -86c0 -51 -37 -88 -87 -88c-49 0 -88 38 -88 88zM391 786c0 47 40 86 88 86c49 0 87 -38 87 -86c0 -51 -37 -88 -87 -88c-49 0 -88 38 -88 88z" />
    <glyph glyph-name="ograve" unicode="&#xf2;" horiz-adv-x="772" 
d="M315 324c0 -40 31 -72 70 -72c40 0 72 31 72 72c0 39 -32 71 -72 71c-39 0 -70 -33 -70 -71zM37 317c0 88 36 169 102 232c66 64 151 97 246 97c96 0 181 -34 248 -97c66 -63 102 -145 102 -232s-36 -170 -102 -233c-66 -62 -154 -97 -248 -97s-181 35 -246 97
c-66 63 -102 146 -102 233zM322 698l-204 173h186l122 -173h-104z" />
    <glyph glyph-name="otilde" unicode="&#xf5;" horiz-adv-x="772" 
d="M315 324c0 -40 31 -72 70 -72c40 0 72 31 72 72c0 39 -32 71 -72 71c-39 0 -70 -33 -70 -71zM37 317c0 88 36 169 102 232c66 64 151 97 246 97c96 0 181 -34 248 -97c66 -63 102 -145 102 -232s-36 -170 -102 -233c-66 -62 -154 -97 -248 -97s-181 35 -246 97
c-66 63 -102 146 -102 233zM205 686c11 96 40 139 106 139c11 0 22 -2 34 -5l65 -17c8 -2 17 -3 25 -3c25 0 41 12 48 40h76c-5 -92 -50 -142 -109 -142c-10 0 -20 1 -31 4l-69 19c-8 2 -16 4 -26 4c-20 0 -35 -13 -44 -39h-75z" />
    <glyph glyph-name="uacute" unicode="&#xfa;" 
d="M789 633v-633h-313v61c-50 -50 -110 -74 -184 -74c-148 0 -228 76 -228 221v425h300v-375c0 -56 17 -83 64 -83c17 0 32 6 48 22v436h313zM369 698l122 173h185l-204 -173h-103z" />
    <glyph glyph-name="ucircumflex" unicode="&#xfb;" 
d="M789 633v-633h-313v61c-50 -50 -110 -74 -184 -74c-148 0 -228 76 -228 221v425h300v-375c0 -56 17 -83 64 -83c17 0 32 6 48 22v436h313zM240 698l122 173h121l122 -173h-107l-76 72l-76 -72h-106z" />
    <glyph glyph-name="udieresis" unicode="&#xfc;" 
d="M789 633v-633h-313v61c-50 -50 -110 -74 -184 -74c-148 0 -228 76 -228 221v425h300v-375c0 -56 17 -83 64 -83c17 0 32 6 48 22v436h313zM221 786c0 47 41 86 88 86c49 0 87 -38 87 -86c0 -51 -37 -88 -87 -88c-48 0 -88 38 -88 88zM423 786c0 47 41 86 88 86
c49 0 87 -38 87 -86c0 -51 -37 -88 -87 -88c-48 0 -88 38 -88 88z" />
    <glyph glyph-name="ugrave" unicode="&#xf9;" 
d="M789 633v-633h-313v61c-50 -50 -110 -74 -184 -74c-148 0 -228 76 -228 221v425h300v-375c0 -56 17 -83 64 -83c17 0 32 6 48 22v436h313zM355 698l-204 173h186l121 -173h-103z" />
    <glyph glyph-name="ydieresis" unicode="&#xff;" horiz-adv-x="777" 
d="M432 -176h-353l132 317l-213 492h345l48 -117l55 117h334zM205 786c0 47 40 86 88 86c49 0 87 -38 87 -86c0 -51 -37 -88 -87 -88c-49 0 -88 38 -88 88zM407 786c0 47 40 86 88 86c49 0 87 -38 87 -86c0 -51 -37 -88 -87 -88c-49 0 -88 38 -88 88z" />
    <glyph glyph-name="notequal" unicode="&#x2260;" horiz-adv-x="763" 
d="M382 645c52 0 97 -45 97 -98c0 -51 -43 -96 -98 -96c-54 0 -97 43 -97 96c0 56 45 98 98 98zM699 396v-144h-635v144h635zM382 197c52 0 97 -44 97 -97c0 -51 -43 -97 -98 -97c-54 0 -97 44 -97 97c0 55 45 97 98 97z" />
    <glyph glyph-name="infinity" unicode="&#x221e;" horiz-adv-x="777" 
d="M432 -176h-353l132 317l-213 492h345l48 -117l55 117h334zM347 699l122 173h186l-204 -173h-104z" />
    <glyph glyph-name="lessequal" unicode="&#x2264;" horiz-adv-x="531" 
d="M64 319v171c32 -33 63 -48 104 -48c39 0 63 18 63 47c0 30 -30 53 -82 53c-24 0 -51 -7 -85 -16v84c28 -5 54 -8 76 -8c54 0 88 22 88 52c0 26 -25 45 -63 45c-36 0 -73 -16 -101 -49v149h192c137 0 204 -35 204 -124c0 -47 -27 -83 -82 -107c56 -25 89 -58 89 -114
c0 -49 -24 -88 -65 -110c-44 -24 -91 -25 -147 -25h-25h-166z" />
    <glyph glyph-name="greaterequal" unicode="&#x2265;" horiz-adv-x="362" 
d="M298 324h-234v427l234 62v-489z" />
    <glyph glyph-name="partialdiff" unicode="&#x2202;" horiz-adv-x="1130" 
d="M287 352h-223v399l223 58v-457zM733 770l-472 -828l-107 59l470 829zM761 254v105l-104 -105h104zM987 0h-230v155h-199v94l199 198h230v-193h79v-99h-79v-155z" />
    <glyph glyph-name="summation" unicode="&#x2211;" horiz-adv-x="1062" 
d="M287 352h-223v399l223 58v-457zM733 770l-472 -828l-107 59l470 829zM998 0h-403c104 123 166 194 166 237c0 24 -21 43 -51 43s-61 -27 -105 -75v195c52 36 111 55 175 55c120 0 205 -72 205 -175c0 -61 -26 -121 -76 -191h89v-89z" />
    <glyph glyph-name="pi" unicode="&#x3c0;" horiz-adv-x="731" 
d="M240 664c38 25 78 36 126 36c47 0 88 -11 125 -36l105 106l71 -72l-105 -107c23 -37 35 -76 35 -122c0 -44 -12 -85 -35 -122l105 -106l-71 -73l-105 107c-37 -25 -78 -37 -125 -37c-48 0 -88 12 -126 37l-105 -107l-71 73l104 106c-24 37 -34 78 -34 123
c0 46 11 85 34 121l-104 107l71 72zM495 469c0 70 -60 129 -129 129c-71 0 -130 -59 -130 -129c0 -69 58 -129 130 -129c70 0 129 60 129 129z" />
    <glyph glyph-name="integral" unicode="&#x222b;" horiz-adv-x="1279" 
d="M64 352v158c29 -29 61 -44 99 -44s61 17 61 44c0 29 -30 49 -80 49c-21 0 -48 -5 -80 -15v79c27 -5 51 -7 73 -7c52 0 83 21 83 47c0 25 -23 44 -60 44c-34 0 -69 -16 -96 -46v138h184c130 0 194 -31 194 -115c0 -44 -26 -77 -79 -100c54 -23 85 -53 85 -107
c0 -45 -22 -81 -63 -102s-86 -23 -139 -23h-23h-159zM882 770l-473 -828l-106 59l470 829zM910 254v105l-104 -105h104zM1136 0h-230v155h-199v94l199 198h230v-193h79v-99h-79v-155z" />
    <glyph glyph-name="radical" unicode="&#x221a;" horiz-adv-x="492" 
d="M63 871h106l76 -72l76 72h107l-122 -173h-121z" />
    <glyph glyph-name="approxequal" unicode="&#x2248;" horiz-adv-x="413" 
d="M37 400c0 95 74 169 169 169c96 0 170 -74 170 -169c0 -96 -74 -170 -170 -170c-95 0 -169 74 -169 170z" />
    <glyph glyph-name="nbspace" unicode="&#xa0;" horiz-adv-x="521" 
 />
  </font>
</defs>
</svg>
